<svg xmlns="http://www.w3.org/2000/svg" width="20" height="20" viewBox="0 0 20 20">
    <path fill="#383838" fill-rule="evenodd" d="M8.902 14.75c-3.29 0-5.967-2.664-5.967-5.938 0-3.274 2.677-5.937 5.967-5.937 3.29 0 5.967 2.663 5.967 5.937 0 3.274-2.677 5.938-5.967 5.938zm10.391 2.723L15.58 13.8c-.002-.002-.005-.002-.007-.005 1.053-1.391 1.684-3.113 1.684-4.984C17.256 4.23 13.507.5 8.902.5 4.295.5.548 4.23.548 8.812c0 4.583 3.747 8.313 8.354 8.313 1.88 0 3.61-.628 5.008-1.675l.004.008 3.692 3.694c.232.231.538.348.843.348.306 0 .612-.117.844-.348.467-.465.467-1.215 0-1.68z"/>
</svg>
