<svg xmlns="http://www.w3.org/2000/svg" width="15" height="15" viewBox="0 0 15 15">
    <g fill="#FFF">
        <path d="M14.254.007H9.526c-.38 0-.687.307-.687.686 0 .38.308.686.687.686h3.147L5.937 8.115c-.268.268-.268.703 0 .97.134.135.31.202.486.202.175 0 .35-.067.485-.201l6.66-6.66v2.995c0 .38.307.686.686.686.38 0 .686-.307.686-.686V.693c0-.38-.307-.686-.686-.686z"/>
        <path d="M11.88 6.92c-.38 0-.687.306-.687.685v5.416c0 .248-.209.457-.457.457H1.985c-.248 0-.458-.21-.458-.457V4.27c0-.249.21-.458.458-.458h5.434c.38 0 .686-.307.686-.686 0-.38-.307-.687-.686-.687H1.985c-1.01 0-1.83.821-1.83 1.83v8.752c0 1.009.82 1.83 1.83 1.83h8.75c1.01 0 1.831-.821 1.831-1.83V7.605c0-.378-.307-.686-.686-.686z"/>
    </g>
</svg>
