<svg xmlns="http://www.w3.org/2000/svg" width="30" height="23" viewBox="0 0 30 23">
    <g fill="none">
        <path fill="#383838" d="M15 0c-2.334 0-4.68.89-6.46 2.67-1.324 1.323-2.126 2.965-2.467 4.677C2.62 8.017 0 11.033 0 14.674c0 4.13 3.37 7.5 7.5 7.5h15.978c3.596 0 6.522-2.926 6.522-6.522 0-3.394-2.615-6.157-5.93-6.46.015-2.361-.824-4.726-2.62-6.522C19.672.892 17.334 0 15 0z"/>
        <path fill="#FFF" d="M15 7.826c-.326 0-.499.105-.662.255l-3.587 3.26c-.414.385-.407 1.009-.061 1.387.345.377 1.006.405 1.385.06l1.947-1.772v6.267c0 .54.438.978.978.978s.978-.438.978-.978v-6.267l1.947 1.773c.379.344 1.02.297 1.385-.061.386-.378.315-1.039-.06-1.386L15.661 8.08c-.193-.178-.336-.255-.662-.255z"/>
    </g>
</svg>
