<svg xmlns="http://www.w3.org/2000/svg" width="24" height="14" viewBox="0 0 24 14">
    <path fill="#636363" d="M22.323 6.585c-.728-.786-1.556-1.573-2.465-2.306C17.305 2.22 14.633 1 12 1S6.695 2.221 4.142 4.279c-.91.733-1.737 1.52-2.465 2.306-.133.145-.258.283-.374.415.116.132.24.27.374.415.728.786 1.556 1.573 2.465 2.306C6.695 11.78 9.367 13 12 13s5.305-1.221 7.858-3.279c.91-.733 1.737-1.52 2.465-2.306.133-.145.258-.283.374-.415-.116-.132-.24-.27-.374-.415zM12 14C5.373 14 0 7 0 7s5.373-7 12-7 12 7 12 7-5.373 7-12 7zm0-2.5c2.485 0 4.5-2.015 4.5-4.5S14.485 2.5 12 2.5 7.5 4.515 7.5 7s2.015 4.5 4.5 4.5zm0-1c-1.933 0-3.5-1.567-3.5-3.5s1.567-3.5 3.5-3.5 3.5 1.567 3.5 3.5-1.567 3.5-3.5 3.5z"/>
</svg>
