<svg xmlns="http://www.w3.org/2000/svg" width="40" height="40" viewBox="0 0 40 40">
    <path fill="#1DD1A7" d="M20 0C8.965 0 0 8.965 0 20s8.965 20 20 20 20-8.965 20-20S31.035 0 20 0zm0 1.818c10.052 0 18.182 8.13 18.182 18.182 0 10.052-8.13 18.182-18.182 18.182-10.052 0-18.182-8.13-18.182-18.182C1.818 9.948 9.948 1.818 20 1.818zm9.63 10.44c-.237.01-.461.112-.624.285l-11.733 12.06-5.142-5.285c-.225-.238-.56-.336-.878-.258-.318.078-.57.321-.658.636-.089.315-.002.654.229.886l5.795 5.952c.172.177.407.277.654.277.246 0 .482-.1.653-.277l12.387-12.727c.262-.266.336-.665.186-1.006-.15-.342-.495-.557-.868-.542z"/>
</svg>
