<svg xmlns="http://www.w3.org/2000/svg" width="25" height="18" viewBox="0 0 25 18">
    <path fill="#383838" d="M24.48 0H.52C.234 0 0 .233 0 .52v16.668c0 .287.233.52.52.52h23.96c.287 0 .52-.233.52-.52V.52C25 .233 24.767 0 24.48 0zm-.522 14.386l-8.107-5.843 6.833-3.989c.497-.29.923-.67 1.274-1.107v10.939zM10.375 8.053L2.841 3.653c-.958-.558-1.6-1.53-1.759-2.612h22.836c-.159 1.082-.8 2.054-1.759 2.612l-7.532 4.397-.004.002-1.33.776c-.238.14-.51.214-.79.214h-.009c-.277 0-.549-.074-.788-.214l-1.33-.776zM2.316 4.554l6.833 3.99-8.107 5.842V3.447c.351.437.777.817 1.274 1.107zM1.042 16.667v-.997l9.092-6.552 1.047.611c.398.232.852.355 1.31.355h.015c.46 0 .915-.123 1.313-.355l1.047-.611 9.092 6.552v.997H1.042z"/>
</svg>
