<svg xmlns="http://www.w3.org/2000/svg" width="22" height="22" viewBox="0 0 22 22">
    <path fill="#383838" d="M17.207 21.547c-2.4 0-6.526-1.57-10.958-5.971-2.432-2.432-4.31-5.14-5.326-7.696C0 5.356.031 3.324 1.047 2.34l.215-.216c.154-.185.339-.4.523-.585C2.555.77 3.386.031 4.555.031c1.017 0 1.97.554 2.925 1.724 2.463 3.047 1.54 4.37.03 5.91l-.153.154c0 .184.215 1.108 2.893 3.786 2.524 2.524 3.51 2.8 3.787 2.832l.184-.185c.739-.739 1.478-1.478 2.678-1.478.924 0 2.063.524 3.263 1.509 1.078.923 1.6 1.785 1.724 2.709v.03c.061 1.478-1.108 2.525-1.909 3.232-.123.124-.246.247-.4.37-.523.616-1.293.923-2.37.923zM4.587 1.17c-.708 0-1.324.554-1.94 1.17-.154.153-.338.369-.461.523l-.031.03-.247.247c-.646.646-.584 2.34.124 4.31.954 2.4 2.74 4.986 5.048 7.295 4.155 4.155 8.065 5.633 10.127 5.633.954 0 1.293-.308 1.447-.554.061-.062.092-.124.185-.154.092-.062.184-.154.307-.277l.031-.031c.831-.739 1.57-1.478 1.54-2.309-.093-.585-.524-1.231-1.324-1.94-1.293-1.046-2.124-1.23-2.494-1.23-.677 0-1.139.43-1.847 1.139l-.215.215c-.216.216-.493.308-.77.308-.646 0-1.816-.339-4.648-3.17-2.832-2.833-3.786-4.556-2.924-5.388l.215-.215c1.2-1.2 1.878-1.878-.092-4.34C5.88 1.6 5.233 1.17 4.587 1.17z"/>
</svg>
