<svg xmlns="http://www.w3.org/2000/svg" width="28" height="28" viewBox="0 0 28 28">
    <path fill="#FFF" stroke="#FFF" stroke-width=".3" d="M10.74 1C5.372 1 1 5.372 1 10.74s4.372 9.74 9.74 9.74c2.335 0 4.478-.835 6.158-2.212l8.411 8.41c.35.4 1.044.426 1.42.052.377-.374.357-1.069-.04-1.42l-8.41-8.412c1.374-1.68 2.2-3.825 2.2-6.158 0-5.368-4.371-9.74-9.74-9.74zm0 1.948c4.315 0 7.792 3.477 7.792 7.792 0 4.315-3.477 7.792-7.792 7.792-4.315 0-7.792-3.477-7.792-7.792 0-4.315 3.477-7.792 7.792-7.792z"/>
</svg>
